<svg data-name="icon padlock" xmlns="http://www.w3.org/2000/svg" width="20" height="20" viewBox="0 0 20 20">
    <path data-name="Rectangle 541" style="fill:none" d="M0 0h20v20H0z"/>
    <path data-name="Icon awesome-lock" d="M15.625 8.75h-.937V5.938a5.938 5.938 0 0 0-11.875 0V8.75h-.938A1.875 1.875 0 0 0 0 10.625v7.5A1.875 1.875 0 0 0 1.875 20h13.75a1.875 1.875 0 0 0 1.875-1.875v-7.5a1.875 1.875 0 0 0-1.875-1.875zm-4.062 0H5.938V5.938a2.813 2.813 0 0 1 5.625 0z" transform="translate(1)" style="fill:#193b60"/>
</svg>
